<?xml version="1.0" encoding="UTF-8"?>
<!DOCTYPE svg PUBLIC "-//W3C//DTD SVG 1.1//EN" "http://www.w3.org/Graphics/SVG/1.1/DTD/svg11.dtd">
<svg version="1.1" xmlns="http://www.w3.org/2000/svg" xmlns:xlink="http://www.w3.org/1999/xlink" x="0" y="0" width="800" height="500" viewBox="0, 0, 800, 500">
  <g id="Background">
    <rect x="0" y="0" width="800" height="500" fill="#FFFFFF"/>
  </g>
  <g id="Layer_1">
    <g id="AU">
      <path d="M277.864,293.694 L277.864,228.566 L277.864,228.566 L277.864,88.964 L275.775,88.964 L275.096,88.232 L273.685,87.92 L271.545,88.232 L272.954,89.33 L273.319,90.739 L271.911,88.964 L272.954,90.739 L272.589,90.373 L272.223,91.105 L271.545,90.373 L271.178,91.837 L270.447,90.008 L269.768,91.105 L271.545,96.066 L270.812,96.066 L270.447,94.291 L268.671,92.515 L268.671,95.386 L267.627,96.433 L268.306,95.022 L267.627,93.926 L268.306,93.612 L267.94,91.471 L269.038,88.964 L268.306,88.964 L269.768,88.597 L269.038,87.553 L269.768,87.187 L267.261,85.412 L266.897,86.143 L263.709,81.13 L261.203,79.72 L260.837,78.31 L259.794,77.943 L260.158,78.988 L259.061,77.943 L258.33,78.622 L258.33,77.943 L257.651,78.622 L256.921,76.847 L254.78,76.167 L254.78,76.847 L253.369,76.533 L254.099,78.31 L255.51,78.988 L254.883,78.936 L253.004,78.622 L253.369,79.72 L252.638,80.451 L252.325,79.72 L251.959,81.861 L250.862,79.72 L250.184,80.084 L250.862,78.31 L248.72,79.72 L248.407,80.451 L249.086,81.13 L247.677,81.861 L247.311,80.084 L246.63,80.084 L247.311,79.354 L246.63,79.354 L247.311,78.622 L246.267,79.354 L245.17,78.988 L245.17,79.72 L244.856,78.988 L244.856,79.72 L246.946,80.763 L245.535,81.861 L245.9,82.905 L244.856,83.636 L245.535,85.046 L244.125,85.046 L244.125,86.823 L243.028,85.776 L243.394,84.368 L241.984,84.681 L241.984,83.636 L240.938,86.457 L241.252,83.27 L241.984,82.227 L240.574,81.495 L240.574,85.412 L239.477,85.046 L238.798,86.457 L238.431,85.412 L237.701,86.143 L238.067,84.681 L236.657,86.143 L237.336,86.457 L235.195,87.553 L236.29,88.964 L237.336,88.964 L235.925,90.06 L238.067,90.739 L238.431,90.06 L239.11,90.373 L237.701,91.837 L239.477,92.515 L237.701,92.515 L237.021,91.471 L235.56,92.515 L234.515,90.06 L233.784,90.373 L234.15,91.837 L232.008,92.15 L232.739,92.515 L232.374,93.612 L234.515,92.15 L232.374,93.978 L233.105,94.656 L234.88,93.612 L234.88,94.291 L235.56,94.291 L234.515,95.386 L236.657,97.163 L234.88,95.752 L234.15,96.433 L233.418,95.022 L232.008,94.656 L232.008,93.926 L230.965,94.656 L230.232,96.066 L229.867,95.386 L229.501,96.433 L228.091,96.066 L228.457,96.433 L227.047,97.529 L227.726,97.842 L226.681,98.207 L228.091,102.125 L228.457,101.498 L228.457,101.76 L229.188,100.714 L228.561,101.29 L229.501,99.618 L230.598,98.94 L229.867,99.618 L230.965,99.618 L229.501,100.714 L229.188,103.221 L229.867,103.221 L228.457,103.901 L229.188,104.266 L228.457,104.632 L227.726,102.855 L227.047,106.043 L229.501,105.676 L230.911,106.407 L227.726,106.773 L227.047,106.043 L226.315,106.773 L226.942,107.139 L225.27,107.452 L226.315,107.139 L225.27,106.773 L224.175,105.362 L221.719,104.266 L222.764,105.362 L222.034,105.362 L222.764,106.407 L221.355,105.362 L221.355,105.676 L219.578,104.996 L220.257,104.996 L219.891,104.266 L220.623,104.266 L219.213,103.535 L219.213,104.266 L218.116,103.901 L218.481,104.632 L217.802,103.901 L218.481,104.996 L217.802,105.362 L219.213,105.676 L219.578,106.407 L218.481,106.043 L219.578,106.773 L218.848,106.773 L218.481,106.773 L217.071,106.773 L218.848,107.817 L216.393,107.817 L217.071,108.914 L217.437,108.183 L218.481,108.55 L217.071,109.593 L219.578,110.324 L220.257,112.465 L221.719,111.735 L221.719,111.057 L222.398,111.368 L220.623,113.145 L221.355,113.876 L220.257,113.51 L222.085,116.749 L218.848,113.51 L217.802,113.876 L219.213,116.383 L218.481,116.016 L217.802,117.793 L217.802,119.568 L215.66,117.427 L214.565,113.876 L213.154,112.831 L213.154,109.958 L212.109,109.958 L211.014,108.914 L211.379,107.452 L212.475,107.139 L211.745,106.043 L210.647,106.407 L208.558,109.958 L209.603,111.057 L206.731,110.69 L206.417,111.735 L207.096,113.145 L205.685,112.465 L205.685,113.145 L204.276,113.51 L203.178,114.972 L203.91,115.286 L202.135,116.749 L201.769,119.934 L202.814,122.441 L202.135,124.896 L204.642,125.262 L204.642,126.672 L199.628,130.276 L198.217,130.588 L197.121,132.051 L197.851,133.095 L196.075,133.461 L196.441,134.872 L194.666,138.109 L190.383,143.435 L180.408,147.719 L177.901,148.032 L175.447,148.032 L174.349,148.763 L172.939,149.808 L171.895,148.763 L168.657,148.032 L169.023,148.763 L169.023,149.13 L168.657,148.763 L167.977,148.397 L167.612,148.763 L165.105,151.948 L157.636,153.411 L157.636,152.681 L154.816,154.456 L155.129,155.188 L154.086,155.188 L153.355,156.599 L151.579,156.963 L151.579,156.599 L148.758,158.007 L146.617,156.963 L146.251,155.866 L143.745,157.329 L142.699,156.963 L141.969,156.599 L143.066,154.822 L142.334,154.822 L140.559,156.963 L140.924,157.329 L140.193,157.329 L136.642,159.106 L135.546,158.373 L135.232,160.148 L132.359,161.558 L131.314,163.701 L129.538,164.065 L127.764,166.939 L120.974,168.716 L118.154,170.49 L117.788,172.631 L117.056,172.945 L116.326,172.631 L116.69,174.041 L115.647,175.818 L116.326,176.549 L115.647,176.182 L116.012,176.861 L114.549,178.637 L113.87,177.593 L112.094,178.637 L112.775,176.182 L112.094,176.861 L111.729,174.408 L113.14,170.124 L110.634,170.856 L107.08,179.367 L108.857,184.018 L108.178,186.158 L108.544,190.388 L104.939,195.402 L104.26,201.774 L107.08,206.422 L106.716,207.154 L107.446,209.974 L108.857,211.07 L112.775,218.906 L113.87,219.217 L114.236,220.994 L113.14,220.994 L113.505,224.909 L111.729,227.052 L109.954,224.231 L109.587,220.314 L109.587,222.091 L107.813,223.501 L108.178,219.583 L105.306,214.988 L104.26,217.807 L104.939,218.539 L104.939,217.076 L106.037,222.457 L109.587,225.276 L109.223,228.515 L107.08,229.56 L106.716,227.052 L106.402,229.193 L105.672,224.909 L105.306,227.052 L103.895,221.36 L104.26,226.008 L103.165,225.276 L103.165,221.36 L102.851,224.231 L101.388,223.135 L110.634,236.662 L112.775,242.354 L112.094,244.129 L112.775,247.734 L116.69,252.331 L117.788,254.471 L117.423,255.882 L120.608,260.163 L122.069,265.178 L121.704,271.55 L121.704,272.28 L122.75,277.973 L129.853,292.911 L130.217,298.239 L131.994,297.192 L131.994,297.872 L130.217,298.239 L130.584,300.013 L129.853,301.11 L130.217,303.617 L128.807,306.438 L129.853,314.637 L125.987,319.233 L124.159,319.233 L122.069,317.822 L122.069,325.291 L123.48,329.209 L123.846,328.529 L125.936,328.164 L129.853,330.304 L133.09,335.267 L137.374,336.678 L137.686,335.631 L139.148,336.678 L137.374,336.678 L140.193,338.453 L141.289,337.408 L143.379,338.453 L148.393,337.773 L151.214,339.549 L151.944,338.086 L155.129,339.184 L155.861,338.819 L154.086,338.086 L154.816,336.678 L155.495,336.312 L155.129,337.773 L158.003,337.773 L157.636,336.678 L160.143,336.312 L160.508,334.171 L163.696,332.76 L164.06,331.35 L165.837,330.617 L165.105,329.939 L169.753,331.35 L170.118,329.939 L171.529,330.304 L171.529,328.843 L173.306,329.209 L171.895,327.798 L176.856,323.151 L177.901,323.151 L182.549,323.881 L184.325,322.471 L193.256,321.374 L197.851,322.784 L200.358,321.74 L201.769,324.247 L203.544,324.247 L204.276,322.784 L206.731,323.514 L207.096,322.471 L211.745,322.106 L212.788,322.784 L213.154,324.247 L215.66,322.471 L217.437,323.151 L222.398,318.189 L223.862,312.496 L225.27,311.034 L231.695,308.944 L244.49,301.424 L247.311,300.745 L252.691,301.424 L258.696,301.11 L270.134,297.558 L277.864,293.694 z M233.418,106.407 L231.644,107.139 L231.017,106.46 L231.644,106.773 L233.418,106.407 z M102.118,221.37 L99.271,214.964 L99.271,218.524 L102.118,223.15 L102.118,221.37 z" fill="#000000" id="08"/>
      <path d="M510.691,372.974 L509.648,371.93 L509.961,371.93 L508.759,370.833 L505.888,370.624 L492.204,363.835 L492.464,361.59 L491.89,359.761 L490.69,358.038 L489.749,356.001 L490.063,354.068 L487.712,352.815 L486.197,353.391 L484.998,353.86 L483.744,354.068 L481.967,354.644 L479.513,355.322 L476.275,354.538 L474.498,353.545 L473.035,354.068 L471.94,355.217 L469.956,354.851 L467.919,353.911 L466.403,354.121 L464.001,352.918 L460.92,353.391 L459.51,352.658 L458.309,352.815 L457.473,353.911 L457.89,356.366 L455.696,356.679 L452.981,355.531 L450.84,353.964 L450.213,351.823 L446.922,348.846 L444.206,347.696 L442.327,347.645 L439.924,344.198 L438.88,339.603 L437.209,338.922 L434.336,338.713 L432.717,338.349 L430.941,339.236 L430.888,340.856 L429.061,339.236 L428.226,335.842 L425.353,333.438 L421.801,333.021 L418.877,332.551 L417.153,333.752 L414.072,332.288 L412.192,332.603 L412.087,332.237 L412.087,379.713 L412.818,379.764 L416.736,382.95 L416.736,384.726 L417.833,384.361 L418.877,385.091 L421.018,382.584 L425.302,384.726 L428.12,383.994 L441.281,391.149 L446.662,385.822 L450.891,382.95 L453.398,382.95 L454.131,380.809 L451.624,381.54 L450.213,380.443 L451.99,380.443 L456.586,376.892 L458.727,381.173 L456.586,383.994 L453.398,383.315 L456.586,386.135 L458.727,384.726 L459.823,385.091 L460.136,382.22 L462.642,382.22 L463.374,384.361 L461.964,384.726 L461.6,386.868 L464.052,388.642 L466.56,388.276 L466.926,389.009 L465.882,388.642 L467.656,391.83 L469.067,390.783 L470.477,391.515 L470.111,390.419 L471.574,393.29 L473.351,395.067 L474.029,390.419 L471.888,391.83 L471.21,389.009 L474.759,389.009 L478.99,387.598 L485.779,380.443 L490.428,377.623 L484.735,380.077 L487.922,377.988 L487.816,377.831 L486.876,376.892 L489.331,377.623 L492.204,376.525 L491.838,377.258 L507.506,375.848 L510.691,372.974 z" fill="#000000" id="07"/>
      <path d="M501.435,453.212 L500.384,456.37 L502.488,456.894 L501.435,457.95 L503.014,460.053 L504.596,459.527 L504.596,457.421 L506.698,460.053 L505.643,455.315 L503.014,455.842 L501.435,453.212 z M511.961,423.735 L510.91,420.579 L512.487,416.368 L510.91,414.791 L512.487,410.577 L508.278,405.316 L505.643,404.789 L504.596,407.947 L501.435,406.368 L497.749,410.577 L495.12,408.998 L492.487,411.105 L490.382,410.053 L486.7,411.629 L489.329,414.265 L488.8,415.315 L485.644,411.629 L483.017,413.736 L483.536,415.844 L482.488,413.209 L477.752,414.265 L465.645,406.892 L462.486,406.892 L461.431,404.262 L461.431,406.368 L459.331,405.842 L459.331,406.892 L451.961,403.209 L452.489,407.419 L450.908,410.577 L453.011,419.526 L456.699,424.79 L455.643,425.84 L460.91,432.684 L460.91,437.42 L462.486,435.841 L465.119,440.578 L466.169,440.578 L465.119,444.263 L464.593,441.107 L459.854,436.893 L461.431,446.369 L463.013,446.895 L465.645,454.789 L468.277,455.842 L470.906,461.633 L472.489,461.633 L471.434,461.106 L472.489,458.998 L473.542,462.159 L477.752,462.159 L477.224,463.212 L473.542,462.159 L473.542,463.735 L472.489,463.212 L474.065,467.423 L477.752,465.842 L483.536,466.897 L483.017,465.318 L485.117,469 L488.274,469 L490.382,465.842 L488.8,464.262 L490.911,464.791 L491.437,462.685 L489.856,462.159 L491.964,461.106 L489.856,458.477 L490.382,457.421 L490.382,458.998 L491.437,460.053 L491.964,458.477 L491.964,460.053 L494.065,461.106 L494.594,455.315 L496.175,455.842 L496.175,452.686 L493.538,448.474 L497.223,453.212 L498.276,452.686 L497.223,455.842 L499.331,454.263 L498.802,451.633 L500.384,451.107 L497.749,449.527 L500.384,450.051 L501.435,452.686 L503.54,452.16 L506.172,447.421 L504.596,444.79 L506.698,443.737 L507.222,439.528 L505.643,440.052 L508.278,434.789 L509.855,434.789 L508.278,434.263 L510.381,431.105 L509.331,434.263 L511.961,435.314 L511.961,438.475 L513.016,436.893 L511.437,433.21 L511.961,423.735 z" fill="#000000" id="06"/>
      <path d="M412.087,379.713 L412.087,332.237 L412.087,332.185 L412.087,256.875 L412.087,228.566 L377.408,228.566 L377.408,228.566 L277.864,228.566 L277.864,293.694 L278.647,293.277 L289.666,292.178 L291.443,291.814 L298.597,292.544 L302.515,290.403 L309.251,293.955 L314.265,297.872 L317.453,297.872 L317.087,297.192 L317.817,296.828 L320.272,296.828 L324.556,300.38 L328.837,300.38 L327.741,299.334 L328.471,298.969 L329.203,299.647 L329.881,298.603 L333.799,302.52 L332.755,302.887 L332.755,304.661 L334.896,303.565 L336.306,303.931 L337.716,306.802 L336.672,308.213 L337.036,307.116 L335.262,307.116 L335.94,308.579 L335.262,309.623 L336.672,309.989 L335.94,311.034 L338.081,313.174 L337.403,311.034 L338.447,313.174 L339.491,312.495 L341.632,313.905 L340.588,312.862 L342.365,313.174 L341.632,313.905 L343.775,316.778 L343.775,318.867 L347.69,322.471 L349.831,332.081 L350.198,330.984 L350.564,332.081 L351.242,332.394 L349.831,332.76 L349.101,331.35 L349.467,330.984 L348.057,330.617 L348.057,329.939 L346.96,332.081 L348.423,331.35 L352.705,336.678 L354.482,335.631 L356.256,337.773 L356.935,333.857 L354.482,334.901 L355.526,334.171 L355.892,331.35 L357.3,330.617 L358.033,331.35 L358.033,328.843 L363.359,322.784 L367.643,320.643 L366.545,321.007 L367.276,319.599 L368.009,320.329 L370.461,319.599 L372.969,312.495 L375.112,309.989 L376.52,310.72 L376.52,303.565 L378.297,307.482 L378.661,310.72 L379.707,311.764 L376.886,314.271 L379.027,318.189 L374.745,322.471 L373.701,325.658 L372.969,326.022 L373.701,328.164 L372.605,330.253 L373.335,329.939 L373.701,332.028 L372.969,336.312 L372.238,337.042 L368.009,335.945 L366.18,341.325 L369.784,340.96 L372.605,338.819 L375.112,339.863 L376.52,339.184 L375.79,338.453 L377.565,334.535 L377.93,330.984 L380.071,326.022 L385.085,334.641 L385.399,335.267 L384.722,335.631 L384.355,334.535 L383.989,342.37 L380.071,345.922 L385.085,346.288 L387.175,344.511 L389.003,344.877 L394.331,349.107 L389.003,345.241 L393.599,348.794 L396.627,352.71 L394.331,349.159 L396.106,350.569 L398.247,355.217 L397.307,353.754 L400.023,360.911 L399.657,362.685 L397.88,364.461 L399.291,366.603 L398.613,367.648 L401.434,371.564 L405.559,377.1 L405.716,377.623 L407.856,379.399 L412.087,379.713 z" fill="#000000" id="05"/>
      <path d="M429.897,41.281 L428.487,41.645 L427.39,43.788 L425.302,44.466 L425.613,46.242 L424.569,50.891 L424.203,50.891 L423.839,53.398 L424.935,53.398 L423.525,53.711 L423.161,55.852 L423.839,56.947 L424.569,56.217 L423.839,57.313 L423.161,56.947 L422.794,58.357 L422.428,55.852 L420.654,58.724 L421.697,59.09 L420.654,59.09 L419.243,62.641 L420.287,62.641 L419.921,61.231 L421.018,61.544 L420.287,61.91 L421.697,63.008 L423.525,63.008 L421.697,63.686 L423.525,64.416 L422.794,64.782 L423.161,66.557 L421.697,64.051 L421.018,65.826 L419.243,67.237 L420.287,70.474 L419.921,71.52 L420.654,71.153 L420.287,71.52 L421.018,71.885 L419.607,71.885 L417.78,77.213 L419.607,81.13 L418.51,84.681 L419.921,91.105 L417.78,96.797 L416.736,101.081 L417.466,102.855 L414.959,109.958 L412.087,113.51 L411.408,118.159 L408.17,120.667 L402.164,122.075 L401.434,121.71 L399.291,120.3 L396.785,119.934 L395.374,118.159 L392.867,117.062 L392.188,113.876 L390.778,112.465 L386.13,111.057 L380.438,110.324 L377.407,106.303 L377.407,228.566 L412.087,228.566 L412.087,256.875 L500.874,256.978 L502.335,256.195 L502.231,255.307 L503.432,255.203 L503.588,253.321 L505.416,253.478 L506.723,251.494 L507.663,251.443 L509.856,252.121 L511.998,252.486 L514.399,251.65 L515.916,251.494 L516.28,252.382 L517.482,252.278 L518.736,252.748 L519.727,253.27 L522.444,253.321 L524.324,253.739 L525.42,255.149 L526.099,255.985 L526.83,257.135 L526.935,258.335 L527.719,260.112 L528.867,259.381 L529.39,258.44 L530.486,257.082 L531.582,255.776 L532.262,256.926 L533.568,257.396 L535.291,256.612 L535.499,255.673 L536.596,254.368 L535.396,254.471 L534.925,252.697 L535.082,251.443 L536.596,251.286 L538.424,251.128 L539.52,250.084 L540.984,249.04 L542.551,249.509 L543.909,250.868 L545.632,250.084 L547.199,250.554 L548.139,250.45 L548.976,250.084 L549.863,249.406 L551.377,249.561 L552.995,249.509 L553.048,248.779 L551.637,247.369 L550.647,243.087 L549.863,239.9 L548.817,238.437 L547.722,239.169 L548.452,238.073 L546.989,237.392 L548.087,236.296 L546.989,235.252 L548.452,234.519 L547.356,233.477 L547.356,232.378 L549.13,234.519 L548.087,231.334 L547.722,232.378 L548.452,229.56 L547.722,229.089 L548.087,226.008 L547.356,226.008 L548.817,220.314 L548.087,220.314 L547.356,218.853 L546.677,220.994 L546.989,219.217 L545.945,219.217 L546.677,218.539 L545.215,217.443 L545.215,215.301 L546.311,214.258 L544.171,214.936 L545.945,214.258 L545.581,212.481 L541.664,211.384 L542.76,210.704 L540.618,208.197 L540.984,206.789 L539.887,206.056 L539.52,206.789 L539.887,205.691 L537.746,204.648 L537.746,205.012 L535.971,203.237 L534.195,198.587 L532.784,198.223 L533.15,196.812 L532.418,197.857 L532.418,196.812 L531.375,196.446 L532.054,197.857 L530.643,197.179 L530.643,197.857 L529.233,197.179 L529.233,197.857 L524.585,191.484 L523.54,192.895 L522.078,190.754 L522.808,190.388 L521.765,188.247 L522.444,187.569 L521.4,183.651 L522.078,183.651 L522.444,180.778 L521.765,179.003 L521.765,180.1 L521.033,179.734 L520.301,178.325 L521.4,178.689 L521.765,178.325 L520.667,176.549 L520.667,177.959 L520.301,176.549 L519.623,176.182 L519.258,177.227 L520.301,179.003 L519.623,178.689 L520.301,180.466 L515.341,176.861 L513.564,174.041 L513.198,174.772 L512.155,176.549 L513.198,179.003 L513.931,180.466 L513.198,179.734 L511.057,177.227 L508.916,179.734 L510.013,177.227 L508.55,177.227 L509.283,176.861 L508.916,176.182 L507.506,176.549 L508.916,175.818 L506.776,170.856 L507.506,166.939 L507.142,167.617 L505.731,166.209 L505.365,166.939 L505.365,163.701 L503.955,164.432 L504.321,163.335 L503.955,163.335 L504.635,161.558 L503.224,160.148 L502.18,160.88 L502.492,159.47 L500.038,159.47 L499.673,158.373 L500.403,158.007 L498.628,156.963 L498.94,156.232 L497.896,155.188 L498.94,154.822 L498.262,154.092 L499.307,154.456 L499.673,153.725 L501.447,155.188 L499.307,151.637 L498.628,151.948 L498.628,150.904 L497.532,150.904 L497.166,149.496 L496.122,149.496 L495.755,149.496 L495.755,150.904 L494.711,150.538 L493.248,149.13 L493.614,148.763 L493.614,148.397 L491.838,147.353 L489.697,147.719 L489.018,145.212 L487.922,145.212 L488.653,146.989 L487.19,146.623 L485.101,144.482 L486.512,145.212 L484.369,140.564 L484.369,142.027 L481.184,142.339 L479.721,139.154 L479.409,140.564 L478.312,140.564 L477.266,139.154 L473.662,137.743 L471.574,135.236 L472.252,131.319 L470.843,131.319 L468.336,127.037 L470.111,120.978 L469.433,120.978 L469.433,118.159 L467.292,114.242 L467.97,112.465 L466.196,112.831 L461.964,107.139 L461.964,105.362 L462.642,105.362 L462.642,102.855 L461.234,101.081 L460.867,97.163 L459.457,95.752 L461.234,93.612 L461.234,93.245 L460.136,93.612 L459.823,91.837 L461.234,90.06 L460.501,90.06 L459.823,88.597 L457.682,88.283 L456.219,86.143 L453.765,85.412 L451.99,80.763 L449.847,82.54 L448.436,81.861 L447.706,84.002 L445.565,85.046 L443.789,83.636 L442.744,78.988 L440.916,76.167 L441.648,72.618 L440.604,69.064 L440.916,65.826 L438.827,66.557 L439.873,63.321 L437.73,61.91 L437.73,60.501 L435.956,60.134 L435.589,57.627 L437.73,55.852 L435.956,55.172 L434.545,55.539 L433.448,54.441 L433.448,49.114 L432.038,44.831 L430.994,44.831 L430.263,43.422 L430.263,44.101 L428.853,44.831 L430.627,41.96 L430.263,41.645 L429.897,41.281 z" fill="#000000" id="04"/>
      <path d="M277.864,88.964 L277.864,228.566 L377.407,228.566 L377.407,106.303 L376.155,104.632 L372.605,103.535 L367.955,100.348 L366.91,100.714 L367.276,101.447 L365.502,100.714 L364.404,101.081 L364.404,99.618 L360.488,97.842 L359.077,95.022 L353.385,91.471 L353.019,91.837 L353.019,91.105 L351.974,91.471 L350.198,89.694 L349.467,87.187 L351.608,86.457 L353.385,82.227 L355.526,81.13 L355.892,78.988 L357.667,75.071 L356.205,76.167 L355.526,75.803 L355.159,72.618 L355.892,72.93 L356.57,72.251 L355.526,71.885 L355.892,70.841 L356.935,70.11 L357.3,71.153 L358.346,69.064 L358.711,70.841 L359.077,69.064 L360.121,69.378 L360.488,68.334 L361.218,70.11 L360.488,71.153 L361.897,70.474 L362.995,68.334 L361.897,67.237 L364.038,67.603 L361.897,65.149 L362.628,65.461 L362.995,64.782 L363.725,65.826 L363.359,64.416 L364.404,64.416 L365.136,62.641 L364.769,61.544 L365.502,61.544 L365.502,62.641 L367.643,60.134 L365.502,57.994 L364.404,58.724 L365.136,59.403 L364.038,59.403 L362.628,56.217 L361.897,56.217 L362.995,54.806 L358.711,57.994 L361.218,58.724 L360.121,60.865 L359.077,61.544 L357.667,61.231 L356.935,61.91 L356.935,60.865 L356.205,60.865 L357.3,59.09 L356.205,59.403 L355.892,58.724 L357.3,56.947 L354.428,58.357 L354.063,59.454 L353.019,58.724 L355.892,55.539 L351.974,57.627 L351.608,56.947 L349.831,57.313 L348.057,58.357 L349.467,59.09 L347.325,58.724 L348.057,59.769 L343.775,57.994 L342.677,55.539 L341.268,57.313 L336.985,56.217 L335.94,58.357 L336.672,56.583 L335.94,55.172 L335.208,55.539 L334.844,54.441 L333.434,55.539 L332.388,54.441 L333.434,53.398 L332.022,53.032 L328.837,54.806 L329.151,53.398 L328.471,54.076 L327.741,53.032 L326.696,53.711 L327.009,52.665 L324.919,53.032 L322.414,48.749 L321.682,48.749 L322.048,49.844 L321.317,49.48 L319.541,50.891 L317.087,47.338 L316.355,48.384 L315.989,46.242 L314.946,46.973 L315.31,48.017 L313.482,46.242 L313.848,48.384 L314.579,48.749 L313.848,49.844 L313.169,47.338 L311.707,46.242 L311.707,47.703 L309.931,47.338 L310.297,48.017 L309.618,48.749 L311.393,48.384 L311.707,49.114 L311.393,49.48 L312.804,49.844 L313.169,50.891 L314.579,50.159 L317.766,49.844 L317.766,50.525 L318.496,50.525 L317.766,50.891 L318.861,51.255 L318.131,51.255 L318.861,51.621 L318.131,51.934 L319.906,51.934 L320.272,51.934 L318.496,53.711 L319.906,54.806 L319.227,55.172 L318.861,57.313 L320.638,57.994 L318.183,57.313 L317.087,57.994 L316.72,60.134 L316.042,58.357 L314.946,59.09 L314.579,57.994 L312.804,59.769 L311.028,58.724 L306.066,59.403 L304.656,58.357 L304.289,56.583 L303.559,58.724 L300.74,57.994 L301.418,60.501 L299.641,60.134 L298.963,60.865 L300.74,62.275 L299.276,61.91 L299.957,63.008 L299.276,63.686 L298.597,62.275 L298.597,62.641 L297.867,63.008 L298.233,61.18 L296.09,60.865 L296.456,63.321 L295.726,63.321 L297.867,64.416 L296.823,64.416 L296.823,65.096 L295.046,63.321 L293.949,63.686 L294.316,64.416 L293.584,63.686 L293.584,66.193 L291.131,66.872 L291.131,69.378 L293.219,71.885 L292.539,71.52 L289.666,73.661 L288.623,73.295 L288.623,72.618 L287.526,73.295 L287.213,76.482 L287.891,76.167 L286.48,77.213 L286.847,78.988 L285.75,79.72 L285.07,78.988 L285.75,80.763 L285.07,80.084 L284.339,81.495 L283.974,80.398 L282.564,82.905 L282.564,84.002 L283.609,85.046 L284.339,84.316 L284.339,85.412 L285.75,85.046 L286.116,85.776 L287.526,85.046 L287.213,85.776 L285.436,86.823 L286.48,86.823 L286.48,87.553 L286.116,87.553 L286.377,88.023 L286.637,88.129 L287.526,87.553 L287.213,88.597 L289.666,87.187 L289.666,88.232 L288.257,88.232 L288.987,88.964 L287.891,88.597 L287.213,88.597 L285.75,88.597 L286.48,90.008 L285.75,89.33 L286.116,91.837 L285.07,92.15 L283.974,89.694 L282.929,89.33 L283.295,91.105 L281.833,88.964 L282.199,89.694 L281.521,89.694 L281.154,89.694 L281.833,90.739 L281.154,91.471 L282.199,91.837 L281.154,91.837 L280.788,93.245 L280.788,92.15 L280.057,93.612 L280.788,91.837 L280.423,91.471 L279.692,90.739 L279.692,89.33 L279.014,90.373 L279.014,88.964 L277.864,88.964 z" fill="#000000" id="03"/>
      <path d="M540.984,249.04 L539.52,250.084 L538.424,251.128 L536.596,251.286 L535.082,251.443 L534.925,252.697 L535.396,254.471 L536.596,254.368 L535.499,255.673 L535.291,256.612 L533.568,257.396 L532.262,256.926 L531.582,255.776 L530.486,257.082 L529.39,258.44 L528.867,259.381 L527.719,260.112 L526.934,258.335 L526.83,257.135 L526.099,255.985 L525.42,255.149 L524.324,253.739 L522.444,253.321 L519.727,253.27 L518.736,252.748 L517.482,252.278 L516.28,252.382 L515.916,251.494 L514.399,251.65 L511.998,252.486 L509.856,252.121 L507.663,251.443 L506.723,251.494 L505.416,253.478 L503.588,253.321 L503.432,255.203 L502.231,255.307 L502.335,256.195 L500.874,256.978 L412.087,256.875 L412.087,332.185 L412.087,332.237 L412.192,332.603 L414.072,332.288 L417.153,333.752 L418.877,332.551 L421.801,333.021 L425.353,333.438 L428.226,335.842 L429.061,339.236 L430.888,340.856 L430.941,339.236 L432.717,338.349 L434.336,338.713 L437.209,338.922 L438.88,339.603 L439.924,344.198 L442.327,347.645 L444.206,347.696 L446.922,348.846 L450.213,351.823 L450.84,353.964 L452.981,355.531 L455.696,356.679 L457.89,356.366 L457.473,353.911 L458.309,352.815 L459.51,352.658 L460.92,353.391 L464.001,352.918 L466.403,354.121 L467.919,353.911 L469.956,354.851 L471.94,355.217 L473.035,354.068 L474.498,353.545 L476.275,354.538 L479.513,355.322 L481.967,354.644 L483.744,354.068 L484.997,353.86 L486.197,353.391 L487.712,352.815 L490.063,354.068 L489.749,356.001 L490.69,358.038 L491.89,359.761 L492.464,361.59 L492.204,363.835 L505.888,370.624 L508.759,370.833 L509.961,371.93 L511.057,371.93 L510.797,372.661 L511.005,372.817 L512.834,371.93 L512.468,369.056 L513.198,368.693 L513.931,368.693 L513.198,366.916 L511.789,366.549 L512.468,365.141 L511.789,363.364 L512.468,363.731 L513.198,361.223 L514.609,355.531 L514.245,351.98 L514.975,349.837 L514.245,349.837 L516.019,348.429 L514.975,347.018 L516.385,347.33 L519.258,340.593 L521.711,339.863 L520.667,337.72 L521.711,337.408 L521.711,338.819 L522.444,338.453 L521.711,336.312 L521.033,336.678 L521.398,335.945 L519.937,335.631 L522.444,334.535 L523.174,332.028 L522.444,330.983 L523.539,330.617 L523.539,328.11 L526.36,325.291 L525.315,324.925 L527.092,324.561 L524.951,323.881 L527.403,323.514 L527.77,321.74 L526.726,322.418 L525.995,321.74 L527.092,322.106 L526.726,321.007 L527.77,321.74 L528.136,318.867 L528.136,318.5 L527.403,319.233 L527.403,318.189 L527.092,318.5 L526.726,317.458 L527.77,318.189 L528.136,316.412 L528.136,317.822 L529.547,317.092 L529.911,315.315 L529.233,314.637 L530.643,314.637 L531.687,311.764 L530.643,313.174 L530.277,311.764 L531.321,311.764 L531.321,310.355 L531.687,311.764 L533.15,309.257 L532.784,308.579 L533.464,308.579 L533.464,309.623 L537.746,307.116 L536.335,306.802 L534.925,307.849 L534.56,307.482 L535.239,306.802 L534.925,306.072 L536.335,306.802 L537.38,306.072 L537.746,306.802 L539.156,304.661 L541.664,303.198 L542.027,300.38 L540.931,300.013 L540.931,300.745 L539.52,300.013 L540.931,300.013 L541.297,300.013 L541.664,297.506 L544.169,295.418 L547.356,285.075 L546.989,277.973 L549.496,271.55 L549.863,270.452 L550.907,264.447 L549.863,263.715 L550.907,264.081 L550.594,262.671 L553.414,257.292 L552.684,257.292 L553.414,256.978 L553.779,254.105 L552.684,252.697 L552.995,249.509 L551.377,249.561 L549.863,249.406 L548.974,250.084 L548.139,250.45 L547.199,250.554 L545.632,250.084 L543.909,250.868 L542.551,249.509 L540.984,249.04 z M498.628,343.048 C499.392,343.018 500.206,343.135 500.926,343.467 C501.545,343.75 501.748,344.168 501.71,344.616 C501.67,345.063 501.333,345.535 500.978,346.076 C500.264,347.163 499.303,348.368 499.358,349.419 C499.232,349.997 498.628,351.246 497.793,351.404 C497.374,351.483 496.874,351.291 496.382,350.621 C495.888,349.952 495.368,348.813 494.868,346.966 C494.561,345.838 494.922,344.88 495.649,344.198 C496.38,343.514 497.481,343.093 498.628,343.048 z" fill="#000000" id="02"/>
      <path d="M610.984,251.768 C618.308,251.465 625.858,252.683 632.765,255.855 C638.694,258.564 640.618,262.443 640.25,266.738 C639.88,271.032 636.867,275.825 633.438,281.034 C626.61,291.435 617.267,302.925 617.796,313.022 C616.562,318.551 610.825,330.556 602.812,332.077 C598.804,332.831 593.932,331.004 589.205,324.594 C584.477,318.167 579.701,306.916 574.909,289.191 C571.992,278.373 575.406,269.19 582.393,262.651 C589.396,256.112 599.99,252.201 610.984,251.768 z" fill="#000000" id="01"/>
    </g>
    <g id="Outlines">
      <path d="M277.864,293.694 L277.864,228.566 L277.864,228.566 L277.864,88.964 L275.775,88.964 L275.096,88.232 L273.685,87.92 L271.545,88.232 L272.954,89.33 L273.319,90.739 L271.911,88.964 L272.954,90.739 L272.589,90.373 L272.223,91.105 L271.545,90.373 L271.178,91.837 L270.447,90.008 L269.768,91.105 L271.545,96.066 L270.812,96.066 L270.447,94.291 L268.671,92.515 L268.671,95.386 L267.627,96.433 L268.306,95.022 L267.627,93.926 L268.306,93.612 L267.94,91.471 L269.038,88.964 L268.306,88.964 L269.768,88.597 L269.038,87.553 L269.768,87.187 L267.261,85.412 L266.897,86.143 L263.709,81.13 L261.203,79.72 L260.837,78.31 L259.794,77.943 L260.158,78.988 L259.061,77.943 L258.33,78.622 L258.33,77.943 L257.651,78.622 L256.921,76.847 L254.78,76.167 L254.78,76.847 L253.369,76.533 L254.099,78.31 L255.51,78.988 L254.883,78.936 L253.004,78.622 L253.369,79.72 L252.638,80.451 L252.325,79.72 L251.959,81.861 L250.862,79.72 L250.184,80.084 L250.862,78.31 L248.72,79.72 L248.407,80.451 L249.086,81.13 L247.677,81.861 L247.311,80.084 L246.63,80.084 L247.311,79.354 L246.63,79.354 L247.311,78.622 L246.267,79.354 L245.17,78.988 L245.17,79.72 L244.856,78.988 L244.856,79.72 L246.946,80.763 L245.535,81.861 L245.9,82.905 L244.856,83.636 L245.535,85.046 L244.125,85.046 L244.125,86.823 L243.028,85.776 L243.394,84.368 L241.984,84.681 L241.984,83.636 L240.938,86.457 L241.252,83.27 L241.984,82.227 L240.574,81.495 L240.574,85.412 L239.477,85.046 L238.798,86.457 L238.431,85.412 L237.701,86.143 L238.067,84.681 L236.657,86.143 L237.336,86.457 L235.195,87.553 L236.29,88.964 L237.336,88.964 L235.925,90.06 L238.067,90.739 L238.431,90.06 L239.11,90.373 L237.701,91.837 L239.477,92.515 L237.701,92.515 L237.021,91.471 L235.56,92.515 L234.515,90.06 L233.784,90.373 L234.15,91.837 L232.008,92.15 L232.739,92.515 L232.374,93.612 L234.515,92.15 L232.374,93.978 L233.105,94.656 L234.88,93.612 L234.88,94.291 L235.56,94.291 L234.515,95.386 L236.657,97.163 L234.88,95.752 L234.15,96.433 L233.418,95.022 L232.008,94.656 L232.008,93.926 L230.965,94.656 L230.232,96.066 L229.867,95.386 L229.501,96.433 L228.091,96.066 L228.457,96.433 L227.047,97.529 L227.726,97.842 L226.681,98.207 L228.091,102.125 L228.457,101.498 L228.457,101.76 L229.188,100.714 L228.561,101.29 L229.501,99.618 L230.598,98.94 L229.867,99.618 L230.965,99.618 L229.501,100.714 L229.188,103.221 L229.867,103.221 L228.457,103.901 L229.188,104.266 L228.457,104.632 L227.726,102.855 L227.047,106.043 L229.501,105.676 L230.911,106.407 L227.726,106.773 L227.047,106.043 L226.315,106.773 L226.942,107.139 L225.27,107.452 L226.315,107.139 L225.27,106.773 L224.175,105.362 L221.719,104.266 L222.764,105.362 L222.034,105.362 L222.764,106.407 L221.355,105.362 L221.355,105.676 L219.578,104.996 L220.257,104.996 L219.891,104.266 L220.623,104.266 L219.213,103.535 L219.213,104.266 L218.116,103.901 L218.481,104.632 L217.802,103.901 L218.481,104.996 L217.802,105.362 L219.213,105.676 L219.578,106.407 L218.481,106.043 L219.578,106.773 L218.848,106.773 L218.481,106.773 L217.071,106.773 L218.848,107.817 L216.393,107.817 L217.071,108.914 L217.437,108.183 L218.481,108.55 L217.071,109.593 L219.578,110.324 L220.257,112.465 L221.719,111.735 L221.719,111.057 L222.398,111.368 L220.623,113.145 L221.355,113.876 L220.257,113.51 L222.085,116.749 L218.848,113.51 L217.802,113.876 L219.213,116.383 L218.481,116.016 L217.802,117.793 L217.802,119.568 L215.66,117.427 L214.565,113.876 L213.154,112.831 L213.154,109.958 L212.109,109.958 L211.014,108.914 L211.379,107.452 L212.475,107.139 L211.745,106.043 L210.647,106.407 L208.558,109.958 L209.603,111.057 L206.731,110.69 L206.417,111.735 L207.096,113.145 L205.685,112.465 L205.685,113.145 L204.276,113.51 L203.178,114.972 L203.91,115.286 L202.135,116.749 L201.769,119.934 L202.814,122.441 L202.135,124.896 L204.642,125.262 L204.642,126.672 L199.628,130.276 L198.217,130.588 L197.121,132.051 L197.851,133.095 L196.075,133.461 L196.441,134.872 L194.666,138.109 L190.383,143.435 L180.408,147.719 L177.901,148.032 L175.447,148.032 L174.349,148.763 L172.939,149.808 L171.895,148.763 L168.657,148.032 L169.023,148.763 L169.023,149.13 L168.657,148.763 L167.977,148.397 L167.612,148.763 L165.105,151.948 L157.636,153.411 L157.636,152.681 L154.816,154.456 L155.129,155.188 L154.086,155.188 L153.355,156.599 L151.579,156.963 L151.579,156.599 L148.758,158.007 L146.617,156.963 L146.251,155.866 L143.745,157.329 L142.699,156.963 L141.969,156.599 L143.066,154.822 L142.334,154.822 L140.559,156.963 L140.924,157.329 L140.193,157.329 L136.642,159.106 L135.546,158.373 L135.232,160.148 L132.359,161.558 L131.314,163.701 L129.538,164.065 L127.764,166.939 L120.974,168.716 L118.154,170.49 L117.788,172.631 L117.056,172.945 L116.326,172.631 L116.69,174.041 L115.647,175.818 L116.326,176.549 L115.647,176.182 L116.012,176.861 L114.549,178.637 L113.87,177.593 L112.094,178.637 L112.775,176.182 L112.094,176.861 L111.729,174.408 L113.14,170.124 L110.634,170.856 L107.08,179.367 L108.857,184.018 L108.178,186.158 L108.544,190.388 L104.939,195.402 L104.26,201.774 L107.08,206.422 L106.716,207.154 L107.446,209.974 L108.857,211.07 L112.775,218.906 L113.87,219.217 L114.236,220.994 L113.14,220.994 L113.505,224.909 L111.729,227.052 L109.954,224.231 L109.587,220.314 L109.587,222.091 L107.813,223.501 L108.178,219.583 L105.306,214.988 L104.26,217.807 L104.939,218.539 L104.939,217.076 L106.037,222.457 L109.587,225.276 L109.223,228.515 L107.08,229.56 L106.716,227.052 L106.402,229.193 L105.672,224.909 L105.306,227.052 L103.895,221.36 L104.26,226.008 L103.165,225.276 L103.165,221.36 L102.851,224.231 L101.388,223.135 L110.634,236.662 L112.775,242.354 L112.094,244.129 L112.775,247.734 L116.69,252.331 L117.788,254.471 L117.423,255.882 L120.608,260.163 L122.069,265.178 L121.704,271.55 L121.704,272.28 L122.75,277.973 L129.853,292.911 L130.217,298.239 L131.994,297.192 L131.994,297.872 L130.217,298.239 L130.584,300.013 L129.853,301.11 L130.217,303.617 L128.807,306.438 L129.853,314.637 L125.987,319.233 L124.159,319.233 L122.069,317.822 L122.069,325.291 L123.48,329.209 L123.846,328.529 L125.936,328.164 L129.853,330.304 L133.09,335.267 L137.374,336.678 L137.686,335.631 L139.148,336.678 L137.374,336.678 L140.193,338.453 L141.289,337.408 L143.379,338.453 L148.393,337.773 L151.214,339.549 L151.944,338.086 L155.129,339.184 L155.861,338.819 L154.086,338.086 L154.816,336.678 L155.495,336.312 L155.129,337.773 L158.003,337.773 L157.636,336.678 L160.143,336.312 L160.508,334.171 L163.696,332.76 L164.06,331.35 L165.837,330.617 L165.105,329.939 L169.753,331.35 L170.118,329.939 L171.529,330.304 L171.529,328.843 L173.306,329.209 L171.895,327.798 L176.856,323.151 L177.901,323.151 L182.549,323.881 L184.325,322.471 L193.256,321.374 L197.851,322.784 L200.358,321.74 L201.769,324.247 L203.544,324.247 L204.276,322.784 L206.731,323.514 L207.096,322.471 L211.745,322.106 L212.788,322.784 L213.154,324.247 L215.66,322.471 L217.437,323.151 L222.398,318.189 L223.862,312.496 L225.27,311.034 L231.695,308.944 L244.49,301.424 L247.311,300.745 L252.691,301.424 L258.696,301.11 L270.134,297.558 L277.864,293.694 z M233.418,106.407 L231.644,107.139 L231.017,106.46 L231.644,106.773 L233.418,106.407 z M102.118,221.37 L99.271,214.964 L99.271,218.524 L102.118,223.15 L102.118,221.37 z" fill-opacity="0" stroke="#FAFAFA" stroke-width="1.5"/>
      <path d="M510.691,372.974 L509.648,371.93 L509.961,371.93 L508.759,370.833 L505.888,370.624 L492.204,363.835 L492.464,361.59 L491.89,359.761 L490.69,358.038 L489.749,356.001 L490.063,354.068 L487.712,352.815 L486.197,353.391 L484.998,353.86 L483.744,354.068 L481.967,354.644 L479.513,355.322 L476.275,354.538 L474.498,353.545 L473.035,354.068 L471.94,355.217 L469.956,354.851 L467.919,353.911 L466.403,354.121 L464.001,352.918 L460.92,353.391 L459.51,352.658 L458.309,352.815 L457.473,353.911 L457.89,356.366 L455.696,356.679 L452.981,355.531 L450.84,353.964 L450.213,351.823 L446.922,348.846 L444.206,347.696 L442.327,347.645 L439.924,344.198 L438.88,339.603 L437.209,338.922 L434.336,338.713 L432.717,338.349 L430.941,339.236 L430.888,340.856 L429.061,339.236 L428.226,335.842 L425.353,333.438 L421.801,333.021 L418.877,332.551 L417.153,333.752 L414.072,332.288 L412.192,332.603 L412.087,332.237 L412.087,379.713 L412.818,379.764 L416.736,382.95 L416.736,384.726 L417.833,384.361 L418.877,385.091 L421.018,382.584 L425.302,384.726 L428.12,383.994 L441.281,391.149 L446.662,385.822 L450.891,382.95 L453.398,382.95 L454.131,380.809 L451.624,381.54 L450.213,380.443 L451.99,380.443 L456.586,376.892 L458.727,381.173 L456.586,383.994 L453.398,383.315 L456.586,386.135 L458.727,384.726 L459.823,385.091 L460.136,382.22 L462.642,382.22 L463.374,384.361 L461.964,384.726 L461.6,386.868 L464.052,388.642 L466.56,388.276 L466.926,389.009 L465.882,388.642 L467.656,391.83 L469.067,390.783 L470.477,391.515 L470.111,390.419 L471.574,393.29 L473.351,395.067 L474.029,390.419 L471.888,391.83 L471.21,389.009 L474.759,389.009 L478.99,387.598 L485.779,380.443 L490.428,377.623 L484.735,380.077 L487.922,377.988 L487.816,377.831 L486.876,376.892 L489.331,377.623 L492.204,376.525 L491.838,377.258 L507.506,375.848 L510.691,372.974 z" fill-opacity="0" stroke="#FAFAFA" stroke-width="1.5"/>
      <path d="M277.864,88.964 L277.864,228.566 L377.407,228.566 L377.407,106.303 L376.155,104.632 L372.605,103.535 L367.955,100.348 L366.91,100.714 L367.276,101.447 L365.502,100.714 L364.404,101.081 L364.404,99.618 L360.488,97.842 L359.077,95.022 L353.385,91.471 L353.019,91.837 L353.019,91.105 L351.974,91.471 L350.198,89.694 L349.467,87.187 L351.608,86.457 L353.385,82.227 L355.526,81.13 L355.892,78.988 L357.667,75.071 L356.205,76.167 L355.526,75.803 L355.159,72.618 L355.892,72.93 L356.57,72.251 L355.526,71.885 L355.892,70.841 L356.935,70.11 L357.3,71.153 L358.346,69.064 L358.711,70.841 L359.077,69.064 L360.121,69.378 L360.488,68.334 L361.218,70.11 L360.488,71.153 L361.897,70.474 L362.995,68.334 L361.897,67.237 L364.038,67.603 L361.897,65.149 L362.628,65.461 L362.995,64.782 L363.725,65.826 L363.359,64.416 L364.404,64.416 L365.136,62.641 L364.769,61.544 L365.502,61.544 L365.502,62.641 L367.643,60.134 L365.502,57.994 L364.404,58.724 L365.136,59.403 L364.038,59.403 L362.628,56.217 L361.897,56.217 L362.995,54.806 L358.711,57.994 L361.218,58.724 L360.121,60.865 L359.077,61.544 L357.667,61.231 L356.935,61.91 L356.935,60.865 L356.205,60.865 L357.3,59.09 L356.205,59.403 L355.892,58.724 L357.3,56.947 L354.428,58.357 L354.063,59.454 L353.019,58.724 L355.892,55.539 L351.974,57.627 L351.608,56.947 L349.831,57.313 L348.057,58.357 L349.467,59.09 L347.325,58.724 L348.057,59.769 L343.775,57.994 L342.677,55.539 L341.268,57.313 L336.985,56.217 L335.94,58.357 L336.672,56.583 L335.94,55.172 L335.208,55.539 L334.844,54.441 L333.434,55.539 L332.388,54.441 L333.434,53.398 L332.022,53.032 L328.837,54.806 L329.151,53.398 L328.471,54.076 L327.741,53.032 L326.696,53.711 L327.009,52.665 L324.919,53.032 L322.414,48.749 L321.682,48.749 L322.048,49.844 L321.317,49.48 L319.541,50.891 L317.087,47.338 L316.355,48.384 L315.989,46.242 L314.946,46.973 L315.31,48.017 L313.482,46.242 L313.848,48.384 L314.579,48.749 L313.848,49.844 L313.169,47.338 L311.707,46.242 L311.707,47.703 L309.931,47.338 L310.297,48.017 L309.618,48.749 L311.393,48.384 L311.707,49.114 L311.393,49.48 L312.804,49.844 L313.169,50.891 L314.579,50.159 L317.766,49.844 L317.766,50.525 L318.496,50.525 L317.766,50.891 L318.861,51.255 L318.131,51.255 L318.861,51.621 L318.131,51.934 L319.906,51.934 L320.272,51.934 L318.496,53.711 L319.906,54.806 L319.227,55.172 L318.861,57.313 L320.638,57.994 L318.183,57.313 L317.087,57.994 L316.72,60.134 L316.042,58.357 L314.946,59.09 L314.579,57.994 L312.804,59.769 L311.028,58.724 L306.066,59.403 L304.656,58.357 L304.289,56.583 L303.559,58.724 L300.74,57.994 L301.418,60.501 L299.641,60.134 L298.963,60.865 L300.74,62.275 L299.276,61.91 L299.957,63.008 L299.276,63.686 L298.597,62.275 L298.597,62.641 L297.867,63.008 L298.233,61.18 L296.09,60.865 L296.456,63.321 L295.726,63.321 L297.867,64.416 L296.823,64.416 L296.823,65.096 L295.046,63.321 L293.949,63.686 L294.316,64.416 L293.584,63.686 L293.584,66.193 L291.131,66.872 L291.131,69.378 L293.219,71.885 L292.539,71.52 L289.666,73.661 L288.623,73.295 L288.623,72.618 L287.526,73.295 L287.213,76.482 L287.891,76.167 L286.48,77.213 L286.847,78.988 L285.75,79.72 L285.07,78.988 L285.75,80.763 L285.07,80.084 L284.339,81.495 L283.974,80.398 L282.564,82.905 L282.564,84.002 L283.609,85.046 L284.339,84.316 L284.339,85.412 L285.75,85.046 L286.116,85.776 L287.526,85.046 L287.213,85.776 L285.436,86.823 L286.48,86.823 L286.48,87.553 L286.116,87.553 L286.377,88.023 L286.637,88.129 L287.526,87.553 L287.213,88.597 L289.666,87.187 L289.666,88.232 L288.257,88.232 L288.987,88.964 L287.891,88.597 L287.213,88.597 L285.75,88.597 L286.48,90.008 L285.75,89.33 L286.116,91.837 L285.07,92.15 L283.974,89.694 L282.929,89.33 L283.295,91.105 L281.833,88.964 L282.199,89.694 L281.521,89.694 L281.154,89.694 L281.833,90.739 L281.154,91.471 L282.199,91.837 L281.154,91.837 L280.788,93.245 L280.788,92.15 L280.057,93.612 L280.788,91.837 L280.423,91.471 L279.692,90.739 L279.692,89.33 L279.014,90.373 L279.014,88.964 L277.864,88.964 z" fill-opacity="0" stroke="#FAFAFA" stroke-width="1.5"/>
      <path d="M540.984,249.04 L539.52,250.084 L538.424,251.128 L536.596,251.286 L535.082,251.443 L534.925,252.697 L535.396,254.471 L536.596,254.368 L535.499,255.673 L535.291,256.612 L533.568,257.396 L532.262,256.926 L531.582,255.776 L530.486,257.082 L529.39,258.44 L528.867,259.381 L527.719,260.112 L526.934,258.335 L526.83,257.135 L526.099,255.985 L525.42,255.149 L524.324,253.739 L522.444,253.321 L519.727,253.27 L518.736,252.748 L517.482,252.278 L516.28,252.382 L515.916,251.494 L514.399,251.65 L511.998,252.486 L509.856,252.121 L507.663,251.443 L506.723,251.494 L505.416,253.478 L503.588,253.321 L503.432,255.203 L502.231,255.307 L502.335,256.195 L500.874,256.978 L412.087,256.875 L412.087,332.185 L412.087,332.237 L412.192,332.603 L414.072,332.288 L417.153,333.752 L418.877,332.551 L421.801,333.021 L425.353,333.438 L428.226,335.842 L429.061,339.236 L430.888,340.856 L430.941,339.236 L432.717,338.349 L434.336,338.713 L437.209,338.922 L438.88,339.603 L439.924,344.198 L442.327,347.645 L444.206,347.696 L446.922,348.846 L450.213,351.823 L450.84,353.964 L452.981,355.531 L455.696,356.679 L457.89,356.366 L457.473,353.911 L458.309,352.815 L459.51,352.658 L460.92,353.391 L464.001,352.918 L466.403,354.121 L467.919,353.911 L469.956,354.851 L471.94,355.217 L473.035,354.068 L474.498,353.545 L476.275,354.538 L479.513,355.322 L481.967,354.644 L483.744,354.068 L484.997,353.86 L486.197,353.391 L487.712,352.815 L490.063,354.068 L489.749,356.001 L490.69,358.038 L491.89,359.761 L492.464,361.59 L492.204,363.835 L505.888,370.624 L508.759,370.833 L509.961,371.93 L511.057,371.93 L510.797,372.661 L511.005,372.817 L512.834,371.93 L512.468,369.056 L513.198,368.693 L513.931,368.693 L513.198,366.916 L511.789,366.549 L512.468,365.141 L511.789,363.364 L512.468,363.731 L513.198,361.223 L514.609,355.531 L514.245,351.98 L514.975,349.837 L514.245,349.837 L516.019,348.429 L514.975,347.018 L516.385,347.33 L519.258,340.593 L521.711,339.863 L520.667,337.72 L521.711,337.408 L521.711,338.819 L522.444,338.453 L521.711,336.312 L521.033,336.678 L521.398,335.945 L519.937,335.631 L522.444,334.535 L523.174,332.028 L522.444,330.983 L523.539,330.617 L523.539,328.11 L526.36,325.291 L525.315,324.925 L527.092,324.561 L524.951,323.881 L527.403,323.514 L527.77,321.74 L526.726,322.418 L525.995,321.74 L527.092,322.106 L526.726,321.007 L527.77,321.74 L528.136,318.867 L528.136,318.5 L527.403,319.233 L527.403,318.189 L527.092,318.5 L526.726,317.458 L527.77,318.189 L528.136,316.412 L528.136,317.822 L529.547,317.092 L529.911,315.315 L529.233,314.637 L530.643,314.637 L531.687,311.764 L530.643,313.174 L530.277,311.764 L531.321,311.764 L531.321,310.355 L531.687,311.764 L533.15,309.257 L532.784,308.579 L533.464,308.579 L533.464,309.623 L537.746,307.116 L536.335,306.802 L534.925,307.849 L534.56,307.482 L535.239,306.802 L534.925,306.072 L536.335,306.802 L537.38,306.072 L537.746,306.802 L539.156,304.661 L541.664,303.198 L542.027,300.38 L540.931,300.013 L540.931,300.745 L539.52,300.013 L540.931,300.013 L541.297,300.013 L541.664,297.506 L544.169,295.418 L547.356,285.075 L546.989,277.973 L549.496,271.55 L549.863,270.452 L550.907,264.447 L549.863,263.715 L550.907,264.081 L550.594,262.671 L553.414,257.292 L552.684,257.292 L553.414,256.978 L553.779,254.105 L552.684,252.697 L552.995,249.509 L551.377,249.561 L549.863,249.406 L548.974,250.084 L548.139,250.45 L547.199,250.554 L545.632,250.084 L543.909,250.868 L542.551,249.509 L540.984,249.04 z M498.628,343.048 C499.392,343.018 500.206,343.135 500.926,343.467 C501.545,343.75 501.748,344.168 501.71,344.616 C501.67,345.063 501.333,345.535 500.978,346.076 C500.264,347.163 499.303,348.368 499.358,349.419 C499.232,349.997 498.628,351.246 497.793,351.404 C497.374,351.483 496.874,351.291 496.382,350.621 C495.888,349.952 495.368,348.813 494.868,346.966 C494.561,345.838 494.922,344.88 495.649,344.198 C496.38,343.514 497.481,343.093 498.628,343.048 z" fill-opacity="0" stroke="#FAFAFA" stroke-width="1.5"/>
      <path d="M612.828,247.771 C620.516,247.452 628.441,248.73 635.691,252.061 C641.915,254.904 643.934,258.975 643.548,263.484 C643.16,267.992 639.998,273.023 636.397,278.49 C629.231,289.408 619.423,301.469 619.979,312.067 C618.684,317.871 612.661,330.472 604.25,332.069 C600.043,332.86 594.929,330.943 589.967,324.214 C585.004,317.468 579.991,305.658 574.961,287.052 C571.899,275.697 575.482,266.058 582.817,259.194 C590.168,252.331 601.288,248.225 612.828,247.771 z" fill-opacity="0" stroke="#FAFAFA" stroke-width="1.5"/>
      <path d="M429.897,41.281 L428.487,41.645 L427.39,43.788 L425.302,44.466 L425.613,46.242 L424.569,50.891 L424.203,50.891 L423.839,53.398 L424.935,53.398 L423.525,53.711 L423.161,55.852 L423.839,56.947 L424.569,56.217 L423.839,57.313 L423.161,56.947 L422.794,58.357 L422.428,55.852 L420.654,58.724 L421.697,59.09 L420.654,59.09 L419.243,62.641 L420.287,62.641 L419.921,61.231 L421.018,61.544 L420.287,61.91 L421.697,63.008 L423.525,63.008 L421.697,63.686 L423.525,64.416 L422.794,64.782 L423.161,66.557 L421.697,64.051 L421.018,65.826 L419.243,67.237 L420.287,70.474 L419.921,71.52 L420.654,71.153 L420.287,71.52 L421.018,71.885 L419.607,71.885 L417.78,77.213 L419.607,81.13 L418.51,84.681 L419.921,91.105 L417.78,96.797 L416.736,101.081 L417.466,102.855 L414.959,109.958 L412.087,113.51 L411.408,118.159 L408.17,120.667 L402.164,122.075 L401.434,121.71 L399.291,120.3 L396.785,119.934 L395.374,118.159 L392.867,117.062 L392.188,113.876 L390.778,112.465 L386.13,111.057 L380.438,110.324 L377.407,106.303 L377.407,228.566 L412.087,228.566 L412.087,256.875 L500.874,256.978 L502.335,256.195 L502.231,255.307 L503.432,255.203 L503.588,253.321 L505.416,253.478 L506.723,251.494 L507.663,251.443 L509.856,252.121 L511.998,252.486 L514.399,251.65 L515.916,251.494 L516.28,252.382 L517.482,252.278 L518.736,252.748 L519.727,253.27 L522.444,253.321 L524.324,253.739 L525.42,255.149 L526.099,255.985 L526.83,257.135 L526.935,258.335 L527.719,260.112 L528.867,259.381 L529.39,258.44 L530.486,257.082 L531.582,255.776 L532.262,256.926 L533.568,257.396 L535.291,256.612 L535.499,255.673 L536.596,254.368 L535.396,254.471 L534.925,252.697 L535.082,251.443 L536.596,251.286 L538.424,251.128 L539.52,250.084 L540.984,249.04 L542.551,249.509 L543.909,250.868 L545.632,250.084 L547.199,250.554 L548.139,250.45 L548.976,250.084 L549.863,249.406 L551.377,249.561 L552.995,249.509 L553.048,248.779 L551.637,247.369 L550.647,243.087 L549.863,239.9 L548.817,238.437 L547.722,239.169 L548.452,238.073 L546.989,237.392 L548.087,236.296 L546.989,235.252 L548.452,234.519 L547.356,233.477 L547.356,232.378 L549.13,234.519 L548.087,231.334 L547.722,232.378 L548.452,229.56 L547.722,229.089 L548.087,226.008 L547.356,226.008 L548.817,220.314 L548.087,220.314 L547.356,218.853 L546.677,220.994 L546.989,219.217 L545.945,219.217 L546.677,218.539 L545.215,217.443 L545.215,215.301 L546.311,214.258 L544.171,214.936 L545.945,214.258 L545.581,212.481 L541.664,211.384 L542.76,210.704 L540.618,208.197 L540.984,206.789 L539.887,206.056 L539.52,206.789 L539.887,205.691 L537.746,204.648 L537.746,205.012 L535.971,203.237 L534.195,198.587 L532.784,198.223 L533.15,196.812 L532.418,197.857 L532.418,196.812 L531.375,196.446 L532.054,197.857 L530.643,197.179 L530.643,197.857 L529.233,197.179 L529.233,197.857 L524.585,191.484 L523.54,192.895 L522.078,190.754 L522.808,190.388 L521.765,188.247 L522.444,187.569 L521.4,183.651 L522.078,183.651 L522.444,180.778 L521.765,179.003 L521.765,180.1 L521.033,179.734 L520.301,178.325 L521.4,178.689 L521.765,178.325 L520.667,176.549 L520.667,177.959 L520.301,176.549 L519.623,176.182 L519.258,177.227 L520.301,179.003 L519.623,178.689 L520.301,180.466 L515.341,176.861 L513.564,174.041 L513.198,174.772 L512.155,176.549 L513.198,179.003 L513.931,180.466 L513.198,179.734 L511.057,177.227 L508.916,179.734 L510.013,177.227 L508.55,177.227 L509.283,176.861 L508.916,176.182 L507.506,176.549 L508.916,175.818 L506.776,170.856 L507.506,166.939 L507.142,167.617 L505.731,166.209 L505.365,166.939 L505.365,163.701 L503.955,164.432 L504.321,163.335 L503.955,163.335 L504.635,161.558 L503.224,160.148 L502.18,160.88 L502.492,159.47 L500.038,159.47 L499.673,158.373 L500.403,158.007 L498.628,156.963 L498.94,156.232 L497.896,155.188 L498.94,154.822 L498.262,154.092 L499.307,154.456 L499.673,153.725 L501.447,155.188 L499.307,151.637 L498.628,151.948 L498.628,150.904 L497.532,150.904 L497.166,149.496 L496.122,149.496 L495.755,149.496 L495.755,150.904 L494.711,150.538 L493.248,149.13 L493.614,148.763 L493.614,148.397 L491.838,147.353 L489.697,147.719 L489.018,145.212 L487.922,145.212 L488.653,146.989 L487.19,146.623 L485.101,144.482 L486.512,145.212 L484.369,140.564 L484.369,142.027 L481.184,142.339 L479.721,139.154 L479.409,140.564 L478.312,140.564 L477.266,139.154 L473.662,137.743 L471.574,135.236 L472.252,131.319 L470.843,131.319 L468.336,127.037 L470.111,120.978 L469.433,120.978 L469.433,118.159 L467.292,114.242 L467.97,112.465 L466.196,112.831 L461.964,107.139 L461.964,105.362 L462.642,105.362 L462.642,102.855 L461.234,101.081 L460.867,97.163 L459.457,95.752 L461.234,93.612 L461.234,93.245 L460.136,93.612 L459.823,91.837 L461.234,90.06 L460.501,90.06 L459.823,88.597 L457.682,88.283 L456.219,86.143 L453.765,85.412 L451.99,80.763 L449.847,82.54 L448.436,81.861 L447.706,84.002 L445.565,85.046 L443.789,83.636 L442.744,78.988 L440.916,76.167 L441.648,72.618 L440.604,69.064 L440.916,65.826 L438.827,66.557 L439.873,63.321 L437.73,61.91 L437.73,60.501 L435.956,60.134 L435.589,57.627 L437.73,55.852 L435.956,55.172 L434.545,55.539 L433.448,54.441 L433.448,49.114 L432.038,44.831 L430.994,44.831 L430.263,43.422 L430.263,44.101 L428.853,44.831 L430.627,41.96 L430.263,41.645 L429.897,41.281 z" fill-opacity="0" stroke="#FAFAFA" stroke-width="1.5"/>
      <path d="M412.087,379.713 L412.087,332.237 L412.087,332.185 L412.087,256.875 L412.087,228.566 L377.408,228.566 L377.408,228.566 L277.864,228.566 L277.864,293.694 L278.647,293.277 L289.666,292.178 L291.443,291.814 L298.597,292.544 L302.515,290.403 L309.251,293.955 L314.265,297.872 L317.453,297.872 L317.087,297.192 L317.817,296.828 L320.272,296.828 L324.556,300.38 L328.837,300.38 L327.741,299.334 L328.471,298.969 L329.203,299.647 L329.881,298.603 L333.799,302.52 L332.755,302.887 L332.755,304.661 L334.896,303.565 L336.306,303.931 L337.716,306.802 L336.672,308.213 L337.036,307.116 L335.262,307.116 L335.94,308.579 L335.262,309.623 L336.672,309.989 L335.94,311.034 L338.081,313.174 L337.403,311.034 L338.447,313.174 L339.491,312.495 L341.632,313.905 L340.588,312.862 L342.365,313.174 L341.632,313.905 L343.775,316.778 L343.775,318.867 L347.69,322.471 L349.831,332.081 L350.198,330.984 L350.564,332.081 L351.242,332.394 L349.831,332.76 L349.101,331.35 L349.467,330.984 L348.057,330.617 L348.057,329.939 L346.96,332.081 L348.423,331.35 L352.705,336.678 L354.482,335.631 L356.256,337.773 L356.935,333.857 L354.482,334.901 L355.526,334.171 L355.892,331.35 L357.3,330.617 L358.033,331.35 L358.033,328.843 L363.359,322.784 L367.643,320.643 L366.545,321.007 L367.276,319.599 L368.009,320.329 L370.461,319.599 L372.969,312.495 L375.112,309.989 L376.52,310.72 L376.52,303.565 L378.297,307.482 L378.661,310.72 L379.707,311.764 L376.886,314.271 L379.027,318.189 L374.745,322.471 L373.701,325.658 L372.969,326.022 L373.701,328.164 L372.605,330.253 L373.335,329.939 L373.701,332.028 L372.969,336.312 L372.238,337.042 L368.009,335.945 L366.18,341.325 L369.784,340.96 L372.605,338.819 L375.112,339.863 L376.52,339.184 L375.79,338.453 L377.565,334.535 L377.93,330.984 L380.071,326.022 L385.085,334.641 L385.399,335.267 L384.722,335.631 L384.355,334.535 L383.989,342.37 L380.071,345.922 L385.085,346.288 L387.175,344.511 L389.003,344.877 L394.331,349.107 L389.003,345.241 L393.599,348.794 L396.627,352.71 L394.331,349.159 L396.106,350.569 L398.247,355.217 L397.307,353.754 L400.023,360.911 L399.657,362.685 L397.88,364.461 L399.291,366.603 L398.613,367.648 L401.434,371.564 L405.559,377.1 L405.716,377.623 L407.856,379.399 L412.087,379.713 z" fill-opacity="0" stroke="#FAFAFA" stroke-width="1.5"/>
      <path d="M496.839,347.766 L579.853,302.6" fill-opacity="0" stroke="#000000" stroke-width="1"/>
      <path d="M501.435,453.212 L500.384,456.37 L502.488,456.894 L501.435,457.95 L503.014,460.053 L504.596,459.527 L504.596,457.421 L506.698,460.053 L505.643,455.315 L503.014,455.842 L501.435,453.212 z M511.961,423.735 L510.91,420.579 L512.487,416.368 L510.91,414.791 L512.487,410.577 L508.278,405.316 L505.643,404.789 L504.596,407.947 L501.435,406.368 L497.749,410.577 L495.12,408.998 L492.487,411.105 L490.382,410.053 L486.7,411.629 L489.329,414.265 L488.8,415.315 L485.644,411.629 L483.017,413.736 L483.536,415.844 L482.488,413.209 L477.752,414.265 L465.645,406.892 L462.486,406.892 L461.431,404.262 L461.431,406.368 L459.331,405.842 L459.331,406.892 L451.961,403.209 L452.489,407.419 L450.908,410.577 L453.011,419.526 L456.699,424.79 L455.643,425.84 L460.91,432.684 L460.91,437.42 L462.486,435.841 L465.119,440.578 L466.169,440.578 L465.119,444.263 L464.593,441.107 L459.854,436.893 L461.431,446.369 L463.013,446.895 L465.645,454.789 L468.277,455.842 L470.906,461.633 L472.489,461.633 L471.434,461.106 L472.489,458.998 L473.542,462.159 L477.752,462.159 L477.224,463.212 L473.542,462.159 L473.542,463.735 L472.489,463.212 L474.065,467.423 L477.752,465.842 L483.536,466.897 L483.017,465.318 L485.117,469 L488.274,469 L490.382,465.842 L488.8,464.262 L490.911,464.791 L491.437,462.685 L489.856,462.159 L491.964,461.106 L489.856,458.477 L490.382,457.421 L490.382,458.998 L491.437,460.053 L491.964,458.477 L491.964,460.053 L494.065,461.106 L494.594,455.315 L496.175,455.842 L496.175,452.686 L493.538,448.474 L497.223,453.212 L498.276,452.686 L497.223,455.842 L499.331,454.263 L498.802,451.633 L500.384,451.107 L497.749,449.527 L500.384,450.051 L501.435,452.686 L503.54,452.16 L506.172,447.421 L504.596,444.79 L506.698,443.737 L507.222,439.528 L505.643,440.052 L508.278,434.789 L509.855,434.789 L508.278,434.263 L510.381,431.105 L509.331,434.263 L511.961,435.314 L511.961,438.475 L513.016,436.893 L511.437,433.21 L511.961,423.735 z" fill-opacity="0" stroke="#FFFFFF" stroke-width="1"/>
    </g>
  </g>
  <?INSERT_WC_STRING?>
</svg>
